<?xml version="1.0" encoding="UTF-8" standalone="no"?>
<!DOCTYPE svg PUBLIC "-//W3C//DTD SVG 1.1//EN"
 "http://www.w3.org/Graphics/SVG/1.1/DTD/svg11.dtd">
<!-- Generated by graphviz version 2.36.0 (20140111.2315)
 -->
<!-- Title: controllers_diagram Pages: 1 -->
<svg width="312pt" height="215pt"
 viewBox="0.00 0.00 312.00 215.00" xmlns="http://www.w3.org/2000/svg" xmlns:xlink="http://www.w3.org/1999/xlink">
<g id="graph0" class="graph" transform="scale(1 1) rotate(0) translate(4 211)">
<title>controllers_diagram</title>
<polygon fill="none" stroke="none" points="-4,4 -4,-211 308,-211 308,4 -4,4"/>
<!-- _diagram_info -->
<g id="node1" class="node"><title>_diagram_info</title>
<text text-anchor="start" x="8" y="-63.6" font-family="Times,serif" font-size="13.00">Controllers diagram</text>
<text text-anchor="start" x="8" y="-49.6" font-family="Times,serif" font-size="13.00">Date: Sep 23 2017 &#45; 09:40</text>
<text text-anchor="start" x="8" y="-35.6" font-family="Times,serif" font-size="13.00">Migration version: 0</text>
<text text-anchor="start" x="8" y="-21.6" font-family="Times,serif" font-size="13.00">Generated by RailRoady 1.5.3</text>
<text text-anchor="start" x="8" y="-7.6" font-family="Times,serif" font-size="13.00">http://railroady.prestonlee.com</text>
</g>
<!-- ApplicationController -->
<g id="node2" class="node"><title>ApplicationController</title>
<path fill="none" stroke="black" d="M180,-112.5C180,-112.5 292,-112.5 292,-112.5 298,-112.5 304,-118.5 304,-124.5 304,-124.5 304,-194.5 304,-194.5 304,-200.5 298,-206.5 292,-206.5 292,-206.5 180,-206.5 180,-206.5 174,-206.5 168,-200.5 168,-194.5 168,-194.5 168,-124.5 168,-124.5 168,-118.5 174,-112.5 180,-112.5"/>
<text text-anchor="middle" x="236" y="-191.3" font-family="Times,serif" font-size="14.00">ApplicationController</text>
<polyline fill="none" stroke="black" points="168,-183.5 304,-183.5 "/>
<polyline fill="none" stroke="black" points="168,-159.5 304,-159.5 "/>
<polyline fill="none" stroke="black" points="168,-135.5 304,-135.5 "/>
<text text-anchor="start" x="176" y="-120.3" font-family="Times,serif" font-size="14.00">_layout</text>
</g>
</g>
</svg>
