<?xml version="1.0" encoding="UTF-8" standalone="no"?>
<!DOCTYPE svg PUBLIC "-//W3C//DTD SVG 1.1//EN"
 "http://www.w3.org/Graphics/SVG/1.1/DTD/svg11.dtd">
<!-- Generated by graphviz version 2.40.1 (20161225.0304)
 -->
<!-- Title: controllers_diagram Pages: 1 -->
<svg width="302pt" height="199pt"
 viewBox="0.00 0.00 301.64 199.00" xmlns="http://www.w3.org/2000/svg" xmlns:xlink="http://www.w3.org/1999/xlink">
<g id="graph0" class="graph" transform="scale(1 1) rotate(0) translate(4 195)">
<title>controllers_diagram</title>
<polygon fill="transparent" stroke="transparent" points="-4,4 -4,-195 297.6416,-195 297.6416,4 -4,4"/>
<!-- _diagram_info -->
<g id="node1" class="node">
<title>_diagram_info</title>
<text text-anchor="start" x="8" y="-58.6" font-family="Times,serif" font-size="13.00" fill="#000000">Controllers diagram</text>
<text text-anchor="start" x="8" y="-45.6" font-family="Times,serif" font-size="13.00" fill="#000000">Date: Sep 23 2017 &#45; 15:07</text>
<text text-anchor="start" x="8" y="-32.6" font-family="Times,serif" font-size="13.00" fill="#000000">Migration version: 0</text>
<text text-anchor="start" x="8" y="-19.6" font-family="Times,serif" font-size="13.00" fill="#000000">Generated by RailRoady 1.5.3</text>
<text text-anchor="start" x="8" y="-6.6" font-family="Times,serif" font-size="13.00" fill="#000000">http://railroady.prestonlee.com</text>
</g>
<!-- ApplicationController -->
<g id="node2" class="node">
<title>ApplicationController</title>
<path fill="none" stroke="#000000" d="M166,-98.5C166,-98.5 281.6416,-98.5 281.6416,-98.5 287.6416,-98.5 293.6416,-104.5 293.6416,-110.5 293.6416,-110.5 293.6416,-178.5 293.6416,-178.5 293.6416,-184.5 287.6416,-190.5 281.6416,-190.5 281.6416,-190.5 166,-190.5 166,-190.5 160,-190.5 154,-184.5 154,-178.5 154,-178.5 154,-110.5 154,-110.5 154,-104.5 160,-98.5 166,-98.5"/>
<text text-anchor="middle" x="223.8208" y="-175.3" font-family="Times,serif" font-size="14.00" fill="#000000">ApplicationController</text>
<polyline fill="none" stroke="#000000" points="154,-168.5 293.6416,-168.5 "/>
<polyline fill="none" stroke="#000000" points="154,-144.5 293.6416,-144.5 "/>
<polyline fill="none" stroke="#000000" points="154,-120.5 293.6416,-120.5 "/>
<text text-anchor="start" x="162" y="-105.3" font-family="Times,serif" font-size="14.00" fill="#000000">_layout</text>
</g>
</g>
</svg>
