<?xml version="1.0" encoding="UTF-8" standalone="no"?>
<!DOCTYPE svg PUBLIC "-//W3C//DTD SVG 1.1//EN"
 "http://www.w3.org/Graphics/SVG/1.1/DTD/svg11.dtd">
<!-- Generated by graphviz version 2.36.0 (20140111.2315)
 -->
<!-- Title: controllers_diagram Pages: 1 -->
<svg width="366pt" height="247pt"
 viewBox="0.00 0.00 366.00 247.00" xmlns="http://www.w3.org/2000/svg" xmlns:xlink="http://www.w3.org/1999/xlink">
<g id="graph0" class="graph" transform="scale(1 1) rotate(0) translate(4 243)">
<title>controllers_diagram</title>
<polygon fill="none" stroke="none" points="-4,4 -4,-243 362,-243 362,4 -4,4"/>
<!-- _diagram_info -->
<g id="node1" class="node"><title>_diagram_info</title>
<text text-anchor="start" x="152" y="-95.6" font-family="Times,serif" font-size="13.00">Controllers diagram</text>
<text text-anchor="start" x="152" y="-81.6" font-family="Times,serif" font-size="13.00">Date: Dec 25 2017 &#45; 11:39</text>
<text text-anchor="start" x="152" y="-67.6" font-family="Times,serif" font-size="13.00">Migration version: 20171005004555</text>
<text text-anchor="start" x="152" y="-53.6" font-family="Times,serif" font-size="13.00">Generated by RailRoady 1.5.3</text>
<text text-anchor="start" x="152" y="-39.6" font-family="Times,serif" font-size="13.00">http://railroady.prestonlee.com</text>
</g>
<!-- ApplicationController -->
<g id="node2" class="node"><title>ApplicationController</title>
<path fill="none" stroke="black" d="M156,-144.5C156,-144.5 268,-144.5 268,-144.5 274,-144.5 280,-150.5 280,-156.5 280,-156.5 280,-226.5 280,-226.5 280,-232.5 274,-238.5 268,-238.5 268,-238.5 156,-238.5 156,-238.5 150,-238.5 144,-232.5 144,-226.5 144,-226.5 144,-156.5 144,-156.5 144,-150.5 150,-144.5 156,-144.5"/>
<text text-anchor="middle" x="212" y="-223.3" font-family="Times,serif" font-size="14.00">ApplicationController</text>
<polyline fill="none" stroke="black" points="144,-215.5 280,-215.5 "/>
<polyline fill="none" stroke="black" points="144,-191.5 280,-191.5 "/>
<polyline fill="none" stroke="black" points="144,-167.5 280,-167.5 "/>
<text text-anchor="start" x="152" y="-152.3" font-family="Times,serif" font-size="14.00">_layout</text>
</g>
<!-- PlayersController -->
<g id="node3" class="node"><title>PlayersController</title>
<path fill="none" stroke="black" d="M12,-0.5C12,-0.5 100,-0.5 100,-0.5 106,-0.5 112,-6.5 112,-12.5 112,-12.5 112,-201.5 112,-201.5 112,-207.5 106,-213.5 100,-213.5 100,-213.5 12,-213.5 12,-213.5 6,-213.5 -7.10543e-15,-207.5 -7.10543e-15,-201.5 -7.10543e-15,-201.5 -7.10543e-15,-12.5 -7.10543e-15,-12.5 -7.10543e-15,-6.5 6,-0.5 12,-0.5"/>
<text text-anchor="middle" x="56" y="-198.3" font-family="Times,serif" font-size="14.00">PlayersController</text>
<polyline fill="none" stroke="black" points="-7.10543e-15,-190.5 112,-190.5 "/>
<text text-anchor="start" x="8" y="-175.3" font-family="Times,serif" font-size="14.00">create</text>
<text text-anchor="start" x="8" y="-160.3" font-family="Times,serif" font-size="14.00">destroy</text>
<text text-anchor="start" x="8" y="-145.3" font-family="Times,serif" font-size="14.00">edit</text>
<text text-anchor="start" x="8" y="-130.3" font-family="Times,serif" font-size="14.00">index</text>
<text text-anchor="start" x="8" y="-115.3" font-family="Times,serif" font-size="14.00">new</text>
<text text-anchor="start" x="8" y="-100.3" font-family="Times,serif" font-size="14.00">show</text>
<text text-anchor="start" x="8" y="-85.3" font-family="Times,serif" font-size="14.00">update</text>
<polyline fill="none" stroke="black" points="-7.10543e-15,-77.5 112,-77.5 "/>
<polyline fill="none" stroke="black" points="-7.10543e-15,-53.5 112,-53.5 "/>
<text text-anchor="start" x="8" y="-38.3" font-family="Times,serif" font-size="14.00">_layout</text>
<text text-anchor="start" x="8" y="-23.3" font-family="Times,serif" font-size="14.00">find_player</text>
<text text-anchor="start" x="8" y="-8.3" font-family="Times,serif" font-size="14.00">player_params</text>
</g>
</g>
</svg>
