<?xml version="1.0" encoding="UTF-8" standalone="no"?>
<!DOCTYPE svg PUBLIC "-//W3C//DTD SVG 1.1//EN"
 "http://www.w3.org/Graphics/SVG/1.1/DTD/svg11.dtd">
<!-- Generated by graphviz version 2.36.0 (20140111.2315)
 -->
<!-- Title: models_diagram Pages: 1 -->
<svg width="590pt" height="342pt"
 viewBox="0.00 0.00 590.00 342.00" xmlns="http://www.w3.org/2000/svg" xmlns:xlink="http://www.w3.org/1999/xlink">
<g id="graph0" class="graph" transform="scale(1 1) rotate(0) translate(4 338)">
<title>models_diagram</title>
<polygon fill="none" stroke="none" points="-4,4 -4,-338 586,-338 586,4 -4,4"/>
<!-- _diagram_info -->
<g id="node1" class="node"><title>_diagram_info</title>
<text text-anchor="start" x="8" y="-312.6" font-family="Times,serif" font-size="13.00">Models diagram</text>
<text text-anchor="start" x="8" y="-298.6" font-family="Times,serif" font-size="13.00">Date: Sep 24 2017 &#45; 10:33</text>
<text text-anchor="start" x="8" y="-284.6" font-family="Times,serif" font-size="13.00">Migration version: 20170923095527</text>
<text text-anchor="start" x="8" y="-270.6" font-family="Times,serif" font-size="13.00">Generated by RailRoady 1.5.3</text>
<text text-anchor="start" x="8" y="-256.6" font-family="Times,serif" font-size="13.00">http://railroady.prestonlee.com</text>
</g>
<!-- ApplicationRecord -->
<g id="node2" class="node"><title>ApplicationRecord</title>
<ellipse fill="none" stroke="black" cx="309" cy="-288" rx="77.0154" ry="18"/>
<text text-anchor="middle" x="309" y="-284.3" font-family="Times,serif" font-size="14.00">ApplicationRecord</text>
</g>
<!-- Player -->
<g id="node3" class="node"><title>Player</title>
<path fill="none" stroke="black" d="M416.5,-242.5C416.5,-242.5 523.5,-242.5 523.5,-242.5 529.5,-242.5 535.5,-248.5 535.5,-254.5 535.5,-254.5 535.5,-321.5 535.5,-321.5 535.5,-327.5 529.5,-333.5 523.5,-333.5 523.5,-333.5 416.5,-333.5 416.5,-333.5 410.5,-333.5 404.5,-327.5 404.5,-321.5 404.5,-321.5 404.5,-254.5 404.5,-254.5 404.5,-248.5 410.5,-242.5 416.5,-242.5"/>
<text text-anchor="middle" x="470" y="-318.3" font-family="Times,serif" font-size="14.00">Player</text>
<polyline fill="none" stroke="black" points="404.5,-310.5 535.5,-310.5 "/>
<text text-anchor="start" x="412.5" y="-295.3" font-family="Times,serif" font-size="14.00">id :bigint(20)</text>
<text text-anchor="start" x="412.5" y="-280.3" font-family="Times,serif" font-size="14.00">name :varchar(255)</text>
<text text-anchor="start" x="412.5" y="-265.3" font-family="Times,serif" font-size="14.00">created_at :datetime</text>
<text text-anchor="start" x="412.5" y="-250.3" font-family="Times,serif" font-size="14.00">updated_at :datetime</text>
</g>
<!-- PlayerTeam -->
<g id="node4" class="node"><title>PlayerTeam</title>
<path fill="none" stroke="black" d="M417.5,-1C417.5,-1 522.5,-1 522.5,-1 528.5,-1 534.5,-7 534.5,-13 534.5,-13 534.5,-65 534.5,-65 534.5,-71 528.5,-77 522.5,-77 522.5,-77 417.5,-77 417.5,-77 411.5,-77 405.5,-71 405.5,-65 405.5,-65 405.5,-13 405.5,-13 405.5,-7 411.5,-1 417.5,-1"/>
<text text-anchor="middle" x="470" y="-61.8" font-family="Times,serif" font-size="14.00">PlayerTeam</text>
<polyline fill="none" stroke="black" points="405.5,-54 534.5,-54 "/>
<text text-anchor="start" x="413.5" y="-38.8" font-family="Times,serif" font-size="14.00">id :bigint(20)</text>
<text text-anchor="start" x="413.5" y="-23.8" font-family="Times,serif" font-size="14.00">player_id :bigint(20)</text>
<text text-anchor="start" x="413.5" y="-8.8" font-family="Times,serif" font-size="14.00">team_id :bigint(20)</text>
</g>
<!-- Player&#45;&gt;PlayerTeam -->
<g id="edge1" class="edge"><title>Player&#45;&gt;PlayerTeam</title>
<path fill="none" stroke="#fdfcd8" d="M449.791,-234.486C446.972,-225.128 444.521,-215.373 443,-206 436.45,-165.639 435.884,-154.265 443,-114 444.591,-105 447.191,-95.6565 450.165,-86.7615"/>
<ellipse fill="none" stroke="#fdfcd8" cx="451.032" cy="-238.421" rx="4.00001" ry="4.00001"/>
<polygon fill="#fdfcd8" stroke="#fdfcd8" points="450.169,-86.7492 457.75,-78.8261 451.839,-82.0362 453.509,-77.3233 453.509,-77.3233 453.509,-77.3233 451.839,-82.0362 449.267,-75.8204 450.169,-86.7492 450.169,-86.7492"/>
</g>
<!-- Team -->
<g id="node5" class="node"><title>Team</title>
<path fill="none" stroke="black" d="M463.5,-114.5C463.5,-114.5 570.5,-114.5 570.5,-114.5 576.5,-114.5 582.5,-120.5 582.5,-126.5 582.5,-126.5 582.5,-193.5 582.5,-193.5 582.5,-199.5 576.5,-205.5 570.5,-205.5 570.5,-205.5 463.5,-205.5 463.5,-205.5 457.5,-205.5 451.5,-199.5 451.5,-193.5 451.5,-193.5 451.5,-126.5 451.5,-126.5 451.5,-120.5 457.5,-114.5 463.5,-114.5"/>
<text text-anchor="middle" x="517" y="-190.3" font-family="Times,serif" font-size="14.00">Team</text>
<polyline fill="none" stroke="black" points="451.5,-182.5 582.5,-182.5 "/>
<text text-anchor="start" x="459.5" y="-167.3" font-family="Times,serif" font-size="14.00">id :bigint(20)</text>
<text text-anchor="start" x="459.5" y="-152.3" font-family="Times,serif" font-size="14.00">name :varchar(255)</text>
<text text-anchor="start" x="459.5" y="-137.3" font-family="Times,serif" font-size="14.00">created_at :datetime</text>
<text text-anchor="start" x="459.5" y="-122.3" font-family="Times,serif" font-size="14.00">updated_at :datetime</text>
</g>
<!-- Player&#45;&gt;Team -->
<g id="edge2" class="edge"><title>Player&#45;&gt;Team</title>
<path fill="none" stroke="#d68c72" d="M490.297,-232.588C492.447,-226.824 494.633,-220.962 496.782,-215.2"/>
<polygon fill="#d68c72" stroke="#d68c72" points="490.198,-232.853 482.487,-240.65 488.45,-237.538 486.703,-242.222 486.703,-242.222 486.703,-242.222 488.45,-237.538 490.919,-243.795 490.198,-232.853 490.198,-232.853"/>
<polygon fill="#d68c72" stroke="#d68c72" points="496.856,-215.003 504.567,-207.206 498.604,-210.318 500.351,-205.633 500.351,-205.633 500.351,-205.633 498.604,-210.318 496.135,-204.061 496.856,-215.003 496.856,-215.003"/>
</g>
<!-- Team&#45;&gt;PlayerTeam -->
<g id="edge3" class="edge"><title>Team&#45;&gt;PlayerTeam</title>
<path fill="none" stroke="#c55002" d="M496.376,-106.783C493.725,-100.07 491.024,-93.231 488.411,-86.6155"/>
<ellipse fill="none" stroke="#c55002" cx="497.896" cy="-110.63" rx="4.00001" ry="4.00001"/>
<polygon fill="#c55002" stroke="#c55002" points="488.336,-86.4243 488.848,-75.4703 486.499,-81.7738 484.662,-77.1234 484.662,-77.1234 484.662,-77.1234 486.499,-81.7738 480.477,-78.7765 488.336,-86.4243 488.336,-86.4243"/>
</g>
</g>
</svg>
