<?xml version="1.0" encoding="UTF-8" standalone="no"?>
<!DOCTYPE svg PUBLIC "-//W3C//DTD SVG 1.1//EN"
 "http://www.w3.org/Graphics/SVG/1.1/DTD/svg11.dtd">
<!-- Generated by graphviz version 2.36.0 (20140111.2315)
 -->
<!-- Title: models_diagram Pages: 1 -->
<svg width="590pt" height="358pt"
 viewBox="0.00 0.00 590.00 358.00" xmlns="http://www.w3.org/2000/svg" xmlns:xlink="http://www.w3.org/1999/xlink">
<g id="graph0" class="graph" transform="scale(1 1) rotate(0) translate(4 354)">
<title>models_diagram</title>
<polygon fill="none" stroke="none" points="-4,4 -4,-354 586,-354 586,4 -4,4"/>
<!-- _diagram_info -->
<g id="node1" class="node"><title>_diagram_info</title>
<text text-anchor="start" x="8" y="-320.6" font-family="Times,serif" font-size="13.00">Models diagram</text>
<text text-anchor="start" x="8" y="-306.6" font-family="Times,serif" font-size="13.00">Date: Sep 24 2017 &#45; 18:46</text>
<text text-anchor="start" x="8" y="-292.6" font-family="Times,serif" font-size="13.00">Migration version: 20170924182731</text>
<text text-anchor="start" x="8" y="-278.6" font-family="Times,serif" font-size="13.00">Generated by RailRoady 1.5.3</text>
<text text-anchor="start" x="8" y="-264.6" font-family="Times,serif" font-size="13.00">http://railroady.prestonlee.com</text>
</g>
<!-- ApplicationRecord -->
<g id="node2" class="node"><title>ApplicationRecord</title>
<ellipse fill="none" stroke="black" cx="309" cy="-296" rx="77.0154" ry="18"/>
<text text-anchor="middle" x="309" y="-292.3" font-family="Times,serif" font-size="14.00">ApplicationRecord</text>
</g>
<!-- Player -->
<g id="node3" class="node"><title>Player</title>
<path fill="none" stroke="black" d="M416.5,-243C416.5,-243 523.5,-243 523.5,-243 529.5,-243 535.5,-249 535.5,-255 535.5,-255 535.5,-337 535.5,-337 535.5,-343 529.5,-349 523.5,-349 523.5,-349 416.5,-349 416.5,-349 410.5,-349 404.5,-343 404.5,-337 404.5,-337 404.5,-255 404.5,-255 404.5,-249 410.5,-243 416.5,-243"/>
<text text-anchor="middle" x="470" y="-333.8" font-family="Times,serif" font-size="14.00">Player</text>
<polyline fill="none" stroke="black" points="404.5,-326 535.5,-326 "/>
<text text-anchor="start" x="412.5" y="-310.8" font-family="Times,serif" font-size="14.00">id :bigint(20)</text>
<text text-anchor="start" x="412.5" y="-295.8" font-family="Times,serif" font-size="14.00">name :varchar(255)</text>
<text text-anchor="start" x="412.5" y="-280.8" font-family="Times,serif" font-size="14.00">status :int(11)</text>
<text text-anchor="start" x="412.5" y="-265.8" font-family="Times,serif" font-size="14.00">created_at :datetime</text>
<text text-anchor="start" x="412.5" y="-250.8" font-family="Times,serif" font-size="14.00">updated_at :datetime</text>
</g>
<!-- PlayerTeam -->
<g id="node4" class="node"><title>PlayerTeam</title>
<path fill="none" stroke="black" d="M417.5,-1C417.5,-1 522.5,-1 522.5,-1 528.5,-1 534.5,-7 534.5,-13 534.5,-13 534.5,-65 534.5,-65 534.5,-71 528.5,-77 522.5,-77 522.5,-77 417.5,-77 417.5,-77 411.5,-77 405.5,-71 405.5,-65 405.5,-65 405.5,-13 405.5,-13 405.5,-7 411.5,-1 417.5,-1"/>
<text text-anchor="middle" x="470" y="-61.8" font-family="Times,serif" font-size="14.00">PlayerTeam</text>
<polyline fill="none" stroke="black" points="405.5,-54 534.5,-54 "/>
<text text-anchor="start" x="413.5" y="-38.8" font-family="Times,serif" font-size="14.00">id :bigint(20)</text>
<text text-anchor="start" x="413.5" y="-23.8" font-family="Times,serif" font-size="14.00">player_id :bigint(20)</text>
<text text-anchor="start" x="413.5" y="-8.8" font-family="Times,serif" font-size="14.00">team_id :bigint(20)</text>
</g>
<!-- Player&#45;&gt;PlayerTeam -->
<g id="edge1" class="edge"><title>Player&#45;&gt;PlayerTeam</title>
<path fill="none" stroke="#74a8a2" d="M449.173,-234.925C446.613,-225.355 444.407,-215.483 443,-206 437,-165.554 435.884,-154.265 443,-114 444.591,-105 447.191,-95.6565 450.165,-86.7615"/>
<ellipse fill="none" stroke="#74a8a2" cx="450.32" cy="-239.026" rx="4.00001" ry="4.00001"/>
<polygon fill="#74a8a2" stroke="#74a8a2" points="450.169,-86.7492 457.75,-78.8261 451.839,-82.0362 453.509,-77.3233 453.509,-77.3233 453.509,-77.3233 451.839,-82.0362 449.267,-75.8204 450.169,-86.7492 450.169,-86.7492"/>
</g>
<!-- Team -->
<g id="node5" class="node"><title>Team</title>
<path fill="none" stroke="black" d="M463.5,-114.5C463.5,-114.5 570.5,-114.5 570.5,-114.5 576.5,-114.5 582.5,-120.5 582.5,-126.5 582.5,-126.5 582.5,-193.5 582.5,-193.5 582.5,-199.5 576.5,-205.5 570.5,-205.5 570.5,-205.5 463.5,-205.5 463.5,-205.5 457.5,-205.5 451.5,-199.5 451.5,-193.5 451.5,-193.5 451.5,-126.5 451.5,-126.5 451.5,-120.5 457.5,-114.5 463.5,-114.5"/>
<text text-anchor="middle" x="517" y="-190.3" font-family="Times,serif" font-size="14.00">Team</text>
<polyline fill="none" stroke="black" points="451.5,-182.5 582.5,-182.5 "/>
<text text-anchor="start" x="459.5" y="-167.3" font-family="Times,serif" font-size="14.00">id :bigint(20)</text>
<text text-anchor="start" x="459.5" y="-152.3" font-family="Times,serif" font-size="14.00">name :varchar(255)</text>
<text text-anchor="start" x="459.5" y="-137.3" font-family="Times,serif" font-size="14.00">created_at :datetime</text>
<text text-anchor="start" x="459.5" y="-122.3" font-family="Times,serif" font-size="14.00">updated_at :datetime</text>
</g>
<!-- Player&#45;&gt;Team -->
<g id="edge2" class="edge"><title>Player&#45;&gt;Team</title>
<path fill="none" stroke="#d59985" d="M491.653,-233.266C493.728,-227.351 495.821,-221.382 497.869,-215.543"/>
<polygon fill="#d59985" stroke="#d59985" points="491.616,-233.372 484.06,-241.319 489.961,-238.09 488.306,-242.808 488.306,-242.808 488.306,-242.808 489.961,-238.09 492.552,-244.298 491.616,-233.372 491.616,-233.372"/>
<polygon fill="#d59985" stroke="#d59985" points="497.951,-215.31 505.507,-207.363 499.606,-210.592 501.261,-205.873 501.261,-205.873 501.261,-205.873 499.606,-210.592 497.014,-204.384 497.951,-215.31 497.951,-215.31"/>
</g>
<!-- Team&#45;&gt;PlayerTeam -->
<g id="edge3" class="edge"><title>Team&#45;&gt;PlayerTeam</title>
<path fill="none" stroke="#663e33" d="M496.376,-106.783C493.725,-100.07 491.024,-93.231 488.411,-86.6155"/>
<ellipse fill="none" stroke="#663e33" cx="497.896" cy="-110.63" rx="4.00001" ry="4.00001"/>
<polygon fill="#663e33" stroke="#663e33" points="488.336,-86.4243 488.848,-75.4703 486.499,-81.7738 484.662,-77.1234 484.662,-77.1234 484.662,-77.1234 486.499,-81.7738 480.477,-78.7765 488.336,-86.4243 488.336,-86.4243"/>
</g>
</g>
</svg>
