<?xml version="1.0" encoding="UTF-8" standalone="no"?>
<!DOCTYPE svg PUBLIC "-//W3C//DTD SVG 1.1//EN"
 "http://www.w3.org/Graphics/SVG/1.1/DTD/svg11.dtd">
<!-- Generated by graphviz version 2.36.0 (20140111.2315)
 -->
<!-- Title: models_diagram Pages: 1 -->
<svg width="505pt" height="230pt"
 viewBox="0.00 0.00 505.00 230.00" xmlns="http://www.w3.org/2000/svg" xmlns:xlink="http://www.w3.org/1999/xlink">
<g id="graph0" class="graph" transform="scale(1 1) rotate(0) translate(4 226)">
<title>models_diagram</title>
<polygon fill="none" stroke="none" points="-4,4 -4,-226 501,-226 501,4 -4,4"/>
<!-- _diagram_info -->
<g id="node1" class="node"><title>_diagram_info</title>
<text text-anchor="start" x="8" y="-207.6" font-family="Times,serif" font-size="13.00">Models diagram</text>
<text text-anchor="start" x="8" y="-193.6" font-family="Times,serif" font-size="13.00">Date: Sep 27 2017 &#45; 16:27</text>
<text text-anchor="start" x="8" y="-179.6" font-family="Times,serif" font-size="13.00">Migration version: 20170924182731</text>
<text text-anchor="start" x="8" y="-165.6" font-family="Times,serif" font-size="13.00">Generated by RailRoady 1.5.3</text>
<text text-anchor="start" x="8" y="-151.6" font-family="Times,serif" font-size="13.00">http://railroady.prestonlee.com</text>
</g>
<!-- ApplicationRecord -->
<g id="node2" class="node"><title>ApplicationRecord</title>
<ellipse fill="none" stroke="black" cx="309" cy="-183" rx="77.0154" ry="18"/>
<text text-anchor="middle" x="309" y="-179.3" font-family="Times,serif" font-size="14.00">ApplicationRecord</text>
</g>
<!-- Player -->
<g id="node3" class="node"><title>Player</title>
<ellipse fill="none" stroke="black" cx="437" cy="-183" rx="33.2209" ry="18"/>
<text text-anchor="middle" x="437" y="-179.3" font-family="Times,serif" font-size="14.00">Player</text>
</g>
<!-- PlayerTeam -->
<g id="node4" class="node"><title>PlayerTeam</title>
<ellipse fill="none" stroke="black" cx="436" cy="-18" rx="53.4184" ry="18"/>
<text text-anchor="middle" x="436" y="-14.3" font-family="Times,serif" font-size="14.00">PlayerTeam</text>
</g>
<!-- Player&#45;&gt;PlayerTeam -->
<g id="edge1" class="edge"><title>Player&#45;&gt;PlayerTeam</title>
<path fill="none" stroke="#81ce13" d="M431.725,-156.895C427.701,-134.605 423.275,-101.144 426,-72 426.797,-63.4781 428.3,-54.2849 429.903,-45.9862"/>
<ellipse fill="none" stroke="#81ce13" cx="432.488" cy="-160.928" rx="4.00001" ry="4.00001"/>
<polygon fill="#81ce13" stroke="#81ce13" points="429.927,-45.866 436.349,-36.977 430.934,-40.9684 431.941,-36.0708 431.941,-36.0708 431.941,-36.0708 430.934,-40.9684 427.533,-35.1647 429.927,-45.866 429.927,-45.866"/>
</g>
<!-- Team -->
<g id="node5" class="node"><title>Team</title>
<ellipse fill="none" stroke="black" cx="466" cy="-90" rx="31.2965" ry="18"/>
<text text-anchor="middle" x="466" y="-86.3" font-family="Times,serif" font-size="14.00">Team</text>
</g>
<!-- Player&#45;&gt;Team -->
<g id="edge2" class="edge"><title>Player&#45;&gt;Team</title>
<path fill="none" stroke="#056495" d="M445.608,-154.988C449.358,-143.221 453.741,-129.467 457.481,-117.732"/>
<polygon fill="#056495" stroke="#056495" points="445.491,-155.356 438.167,-163.517 443.973,-160.12 442.455,-164.884 442.455,-164.884 442.455,-164.884 443.973,-160.12 446.742,-166.25 445.491,-155.356 445.491,-155.356"/>
<polygon fill="#056495" stroke="#056495" points="457.533,-117.568 464.857,-109.406 459.052,-112.804 460.57,-108.04 460.57,-108.04 460.57,-108.04 459.052,-112.804 456.282,-106.673 457.533,-117.568 457.533,-117.568"/>
</g>
<!-- Team&#45;&gt;PlayerTeam -->
<g id="edge3" class="edge"><title>Team&#45;&gt;PlayerTeam</title>
<path fill="none" stroke="#08e52e" d="M455.619,-64.7779C452.947,-58.544 450.059,-51.8046 447.341,-45.4634"/>
<ellipse fill="none" stroke="#08e52e" cx="457.315" cy="-68.7344" rx="4.00002" ry="4.00002"/>
<polygon fill="#08e52e" stroke="#08e52e" points="447.206,-45.1477 447.403,-34.1835 445.237,-40.5519 443.267,-35.9562 443.267,-35.9562 443.267,-35.9562 445.237,-40.5519 439.131,-37.7289 447.206,-45.1477 447.206,-45.1477"/>
</g>
</g>
</svg>
