<?xml version="1.0" encoding="UTF-8" standalone="no"?>
<!DOCTYPE svg PUBLIC "-//W3C//DTD SVG 1.1//EN"
 "http://www.w3.org/Graphics/SVG/1.1/DTD/svg11.dtd">
<!-- Generated by graphviz version 2.36.0 (20140111.2315)
 -->
<!-- Title: models_diagram Pages: 1 -->
<svg width="739pt" height="388pt"
 viewBox="0.00 0.00 739.00 388.00" xmlns="http://www.w3.org/2000/svg" xmlns:xlink="http://www.w3.org/1999/xlink">
<g id="graph0" class="graph" transform="scale(1 1) rotate(0) translate(4 384)">
<title>models_diagram</title>
<polygon fill="none" stroke="none" points="-4,4 -4,-384 735,-384 735,4 -4,4"/>
<!-- _diagram_info -->
<g id="node1" class="node"><title>_diagram_info</title>
<text text-anchor="start" x="8" y="-350.6" font-family="Times,serif" font-size="13.00">Models diagram</text>
<text text-anchor="start" x="8" y="-336.6" font-family="Times,serif" font-size="13.00">Date: Jul 20 2018 &#45; 16:37</text>
<text text-anchor="start" x="8" y="-322.6" font-family="Times,serif" font-size="13.00">Migration version: 20180107085618</text>
<text text-anchor="start" x="8" y="-308.6" font-family="Times,serif" font-size="13.00">Generated by RailRoady 1.5.3</text>
<text text-anchor="start" x="8" y="-294.6" font-family="Times,serif" font-size="13.00">http://railroady.prestonlee.com</text>
</g>
<!-- ApplicationRecord -->
<g id="node2" class="node"><title>ApplicationRecord</title>
<ellipse fill="none" stroke="black" cx="309" cy="-326" rx="77.0154" ry="18"/>
<text text-anchor="middle" x="309" y="-322.3" font-family="Times,serif" font-size="14.00">ApplicationRecord</text>
</g>
<!-- Location -->
<g id="node3" class="node"><title>Location</title>
<path fill="none" stroke="black" d="M416.5,-280.5C416.5,-280.5 523.5,-280.5 523.5,-280.5 529.5,-280.5 535.5,-286.5 535.5,-292.5 535.5,-292.5 535.5,-359.5 535.5,-359.5 535.5,-365.5 529.5,-371.5 523.5,-371.5 523.5,-371.5 416.5,-371.5 416.5,-371.5 410.5,-371.5 404.5,-365.5 404.5,-359.5 404.5,-359.5 404.5,-292.5 404.5,-292.5 404.5,-286.5 410.5,-280.5 416.5,-280.5"/>
<text text-anchor="middle" x="470" y="-356.3" font-family="Times,serif" font-size="14.00">Location</text>
<polyline fill="none" stroke="black" points="404.5,-348.5 535.5,-348.5 "/>
<text text-anchor="start" x="412.5" y="-333.3" font-family="Times,serif" font-size="14.00">id :bigint(20)</text>
<text text-anchor="start" x="412.5" y="-318.3" font-family="Times,serif" font-size="14.00">name :varchar(255)</text>
<text text-anchor="start" x="412.5" y="-303.3" font-family="Times,serif" font-size="14.00">created_at :datetime</text>
<text text-anchor="start" x="412.5" y="-288.3" font-family="Times,serif" font-size="14.00">updated_at :datetime</text>
</g>
<!-- Player -->
<g id="node4" class="node"><title>Player</title>
<path fill="none" stroke="black" d="M565.5,-273C565.5,-273 672.5,-273 672.5,-273 678.5,-273 684.5,-279 684.5,-285 684.5,-285 684.5,-367 684.5,-367 684.5,-373 678.5,-379 672.5,-379 672.5,-379 565.5,-379 565.5,-379 559.5,-379 553.5,-373 553.5,-367 553.5,-367 553.5,-285 553.5,-285 553.5,-279 559.5,-273 565.5,-273"/>
<text text-anchor="middle" x="619" y="-363.8" font-family="Times,serif" font-size="14.00">Player</text>
<polyline fill="none" stroke="black" points="553.5,-356 684.5,-356 "/>
<text text-anchor="start" x="561.5" y="-340.8" font-family="Times,serif" font-size="14.00">id :bigint(20)</text>
<text text-anchor="start" x="561.5" y="-325.8" font-family="Times,serif" font-size="14.00">name :varchar(255)</text>
<text text-anchor="start" x="561.5" y="-310.8" font-family="Times,serif" font-size="14.00">status :int(11)</text>
<text text-anchor="start" x="561.5" y="-295.8" font-family="Times,serif" font-size="14.00">created_at :datetime</text>
<text text-anchor="start" x="561.5" y="-280.8" font-family="Times,serif" font-size="14.00">updated_at :datetime</text>
</g>
<!-- PlayerTeam -->
<g id="node5" class="node"><title>PlayerTeam</title>
<path fill="none" stroke="black" d="M565.5,-1C565.5,-1 672.5,-1 672.5,-1 678.5,-1 684.5,-7 684.5,-13 684.5,-13 684.5,-95 684.5,-95 684.5,-101 678.5,-107 672.5,-107 672.5,-107 565.5,-107 565.5,-107 559.5,-107 553.5,-101 553.5,-95 553.5,-95 553.5,-13 553.5,-13 553.5,-7 559.5,-1 565.5,-1"/>
<text text-anchor="middle" x="619" y="-91.8" font-family="Times,serif" font-size="14.00">PlayerTeam</text>
<polyline fill="none" stroke="black" points="553.5,-84 684.5,-84 "/>
<text text-anchor="start" x="561.5" y="-68.8" font-family="Times,serif" font-size="14.00">id :bigint(20)</text>
<text text-anchor="start" x="561.5" y="-53.8" font-family="Times,serif" font-size="14.00">player_id :bigint(20)</text>
<text text-anchor="start" x="561.5" y="-38.8" font-family="Times,serif" font-size="14.00">team_id :bigint(20)</text>
<text text-anchor="start" x="561.5" y="-23.8" font-family="Times,serif" font-size="14.00">created_at :datetime</text>
<text text-anchor="start" x="561.5" y="-8.8" font-family="Times,serif" font-size="14.00">updated_at :datetime</text>
</g>
<!-- Player&#45;&gt;PlayerTeam -->
<g id="edge1" class="edge"><title>Player&#45;&gt;PlayerTeam</title>
<path fill="none" stroke="#2af7bc" d="M598.173,-264.925C595.613,-255.355 593.407,-245.483 592,-236 586,-195.554 586,-184.446 592,-144 593.322,-135.086 595.352,-125.828 597.716,-116.8"/>
<ellipse fill="none" stroke="#2af7bc" cx="599.32" cy="-269.026" rx="4.00001" ry="4.00001"/>
<polygon fill="#2af7bc" stroke="#2af7bc" points="597.728,-116.759 604.734,-108.323 599.062,-111.94 600.397,-107.122 600.397,-107.122 600.397,-107.122 599.062,-111.94 596.06,-105.921 597.728,-116.759 597.728,-116.759"/>
</g>
<!-- Team -->
<g id="node6" class="node"><title>Team</title>
<path fill="none" stroke="black" d="M612.5,-144.5C612.5,-144.5 719.5,-144.5 719.5,-144.5 725.5,-144.5 731.5,-150.5 731.5,-156.5 731.5,-156.5 731.5,-223.5 731.5,-223.5 731.5,-229.5 725.5,-235.5 719.5,-235.5 719.5,-235.5 612.5,-235.5 612.5,-235.5 606.5,-235.5 600.5,-229.5 600.5,-223.5 600.5,-223.5 600.5,-156.5 600.5,-156.5 600.5,-150.5 606.5,-144.5 612.5,-144.5"/>
<text text-anchor="middle" x="666" y="-220.3" font-family="Times,serif" font-size="14.00">Team</text>
<polyline fill="none" stroke="black" points="600.5,-212.5 731.5,-212.5 "/>
<text text-anchor="start" x="608.5" y="-197.3" font-family="Times,serif" font-size="14.00">id :bigint(20)</text>
<text text-anchor="start" x="608.5" y="-182.3" font-family="Times,serif" font-size="14.00">name :varchar(255)</text>
<text text-anchor="start" x="608.5" y="-167.3" font-family="Times,serif" font-size="14.00">created_at :datetime</text>
<text text-anchor="start" x="608.5" y="-152.3" font-family="Times,serif" font-size="14.00">updated_at :datetime</text>
</g>
<!-- Player&#45;&gt;Team -->
<g id="edge2" class="edge"><title>Player&#45;&gt;Team</title>
<path fill="none" stroke="#7f89ec" d="M640.653,-263.266C642.728,-257.351 644.821,-251.382 646.869,-245.543"/>
<polygon fill="#7f89ec" stroke="#7f89ec" points="640.616,-263.372 633.06,-271.319 638.961,-268.09 637.306,-272.808 637.306,-272.808 637.306,-272.808 638.961,-268.09 641.552,-274.298 640.616,-263.372 640.616,-263.372"/>
<polygon fill="#7f89ec" stroke="#7f89ec" points="646.951,-245.31 654.507,-237.363 648.606,-240.592 650.261,-235.873 650.261,-235.873 650.261,-235.873 648.606,-240.592 646.014,-234.384 646.951,-245.31 646.951,-245.31"/>
</g>
<!-- Team&#45;&gt;PlayerTeam -->
<g id="edge3" class="edge"><title>Team&#45;&gt;PlayerTeam</title>
<path fill="none" stroke="#ce0fec" d="M647.67,-136.739C645.392,-130.247 643.047,-123.56 640.725,-116.939"/>
<ellipse fill="none" stroke="#ce0fec" cx="649.026" cy="-140.605" rx="4.00001" ry="4.00001"/>
<polygon fill="#ce0fec" stroke="#ce0fec" points="640.66,-116.754 641.597,-105.828 639.005,-112.036 637.35,-107.318 637.35,-107.318 637.35,-107.318 639.005,-112.036 633.104,-108.807 640.66,-116.754 640.66,-116.754"/>
</g>
</g>
</svg>
