<?xml version="1.0" encoding="UTF-8" standalone="no"?>
<!DOCTYPE svg PUBLIC "-//W3C//DTD SVG 1.1//EN"
 "http://www.w3.org/Graphics/SVG/1.1/DTD/svg11.dtd">
<!-- Generated by graphviz version 2.36.0 (20140111.2315)
 -->
<!-- Title: models_diagram Pages: 1 -->
<svg width="739pt" height="358pt"
 viewBox="0.00 0.00 739.00 358.00" xmlns="http://www.w3.org/2000/svg" xmlns:xlink="http://www.w3.org/1999/xlink">
<g id="graph0" class="graph" transform="scale(1 1) rotate(0) translate(4 354)">
<title>models_diagram</title>
<polygon fill="none" stroke="none" points="-4,4 -4,-354 735,-354 735,4 -4,4"/>
<!-- _diagram_info -->
<g id="node1" class="node"><title>_diagram_info</title>
<text text-anchor="start" x="8" y="-320.6" font-family="Times,serif" font-size="13.00">Models diagram</text>
<text text-anchor="start" x="8" y="-306.6" font-family="Times,serif" font-size="13.00">Date: Dec 02 2017 &#45; 17:13</text>
<text text-anchor="start" x="8" y="-292.6" font-family="Times,serif" font-size="13.00">Migration version: 20171005004555</text>
<text text-anchor="start" x="8" y="-278.6" font-family="Times,serif" font-size="13.00">Generated by RailRoady 1.5.3</text>
<text text-anchor="start" x="8" y="-264.6" font-family="Times,serif" font-size="13.00">http://railroady.prestonlee.com</text>
</g>
<!-- ApplicationRecord -->
<g id="node2" class="node"><title>ApplicationRecord</title>
<ellipse fill="none" stroke="black" cx="309" cy="-296" rx="77.0154" ry="18"/>
<text text-anchor="middle" x="309" y="-292.3" font-family="Times,serif" font-size="14.00">ApplicationRecord</text>
</g>
<!-- Location -->
<g id="node3" class="node"><title>Location</title>
<path fill="none" stroke="black" d="M416.5,-250.5C416.5,-250.5 523.5,-250.5 523.5,-250.5 529.5,-250.5 535.5,-256.5 535.5,-262.5 535.5,-262.5 535.5,-329.5 535.5,-329.5 535.5,-335.5 529.5,-341.5 523.5,-341.5 523.5,-341.5 416.5,-341.5 416.5,-341.5 410.5,-341.5 404.5,-335.5 404.5,-329.5 404.5,-329.5 404.5,-262.5 404.5,-262.5 404.5,-256.5 410.5,-250.5 416.5,-250.5"/>
<text text-anchor="middle" x="470" y="-326.3" font-family="Times,serif" font-size="14.00">Location</text>
<polyline fill="none" stroke="black" points="404.5,-318.5 535.5,-318.5 "/>
<text text-anchor="start" x="412.5" y="-303.3" font-family="Times,serif" font-size="14.00">id :bigint(20)</text>
<text text-anchor="start" x="412.5" y="-288.3" font-family="Times,serif" font-size="14.00">name :varchar(255)</text>
<text text-anchor="start" x="412.5" y="-273.3" font-family="Times,serif" font-size="14.00">created_at :datetime</text>
<text text-anchor="start" x="412.5" y="-258.3" font-family="Times,serif" font-size="14.00">updated_at :datetime</text>
</g>
<!-- Player -->
<g id="node4" class="node"><title>Player</title>
<path fill="none" stroke="black" d="M565.5,-243C565.5,-243 672.5,-243 672.5,-243 678.5,-243 684.5,-249 684.5,-255 684.5,-255 684.5,-337 684.5,-337 684.5,-343 678.5,-349 672.5,-349 672.5,-349 565.5,-349 565.5,-349 559.5,-349 553.5,-343 553.5,-337 553.5,-337 553.5,-255 553.5,-255 553.5,-249 559.5,-243 565.5,-243"/>
<text text-anchor="middle" x="619" y="-333.8" font-family="Times,serif" font-size="14.00">Player</text>
<polyline fill="none" stroke="black" points="553.5,-326 684.5,-326 "/>
<text text-anchor="start" x="561.5" y="-310.8" font-family="Times,serif" font-size="14.00">id :bigint(20)</text>
<text text-anchor="start" x="561.5" y="-295.8" font-family="Times,serif" font-size="14.00">name :varchar(255)</text>
<text text-anchor="start" x="561.5" y="-280.8" font-family="Times,serif" font-size="14.00">status :int(11)</text>
<text text-anchor="start" x="561.5" y="-265.8" font-family="Times,serif" font-size="14.00">created_at :datetime</text>
<text text-anchor="start" x="561.5" y="-250.8" font-family="Times,serif" font-size="14.00">updated_at :datetime</text>
</g>
<!-- PlayerTeam -->
<g id="node5" class="node"><title>PlayerTeam</title>
<path fill="none" stroke="black" d="M566.5,-1C566.5,-1 671.5,-1 671.5,-1 677.5,-1 683.5,-7 683.5,-13 683.5,-13 683.5,-65 683.5,-65 683.5,-71 677.5,-77 671.5,-77 671.5,-77 566.5,-77 566.5,-77 560.5,-77 554.5,-71 554.5,-65 554.5,-65 554.5,-13 554.5,-13 554.5,-7 560.5,-1 566.5,-1"/>
<text text-anchor="middle" x="619" y="-61.8" font-family="Times,serif" font-size="14.00">PlayerTeam</text>
<polyline fill="none" stroke="black" points="554.5,-54 683.5,-54 "/>
<text text-anchor="start" x="562.5" y="-38.8" font-family="Times,serif" font-size="14.00">id :bigint(20)</text>
<text text-anchor="start" x="562.5" y="-23.8" font-family="Times,serif" font-size="14.00">player_id :bigint(20)</text>
<text text-anchor="start" x="562.5" y="-8.8" font-family="Times,serif" font-size="14.00">team_id :bigint(20)</text>
</g>
<!-- Player&#45;&gt;PlayerTeam -->
<g id="edge1" class="edge"><title>Player&#45;&gt;PlayerTeam</title>
<path fill="none" stroke="#3a4800" d="M598.173,-234.925C595.613,-225.355 593.407,-215.483 592,-206 586,-165.554 584.884,-154.265 592,-114 593.591,-105 596.191,-95.6565 599.165,-86.7615"/>
<ellipse fill="none" stroke="#3a4800" cx="599.32" cy="-239.026" rx="4.00001" ry="4.00001"/>
<polygon fill="#3a4800" stroke="#3a4800" points="599.169,-86.7492 606.75,-78.8261 600.839,-82.0362 602.509,-77.3233 602.509,-77.3233 602.509,-77.3233 600.839,-82.0362 598.267,-75.8204 599.169,-86.7492 599.169,-86.7492"/>
</g>
<!-- Team -->
<g id="node6" class="node"><title>Team</title>
<path fill="none" stroke="black" d="M612.5,-114.5C612.5,-114.5 719.5,-114.5 719.5,-114.5 725.5,-114.5 731.5,-120.5 731.5,-126.5 731.5,-126.5 731.5,-193.5 731.5,-193.5 731.5,-199.5 725.5,-205.5 719.5,-205.5 719.5,-205.5 612.5,-205.5 612.5,-205.5 606.5,-205.5 600.5,-199.5 600.5,-193.5 600.5,-193.5 600.5,-126.5 600.5,-126.5 600.5,-120.5 606.5,-114.5 612.5,-114.5"/>
<text text-anchor="middle" x="666" y="-190.3" font-family="Times,serif" font-size="14.00">Team</text>
<polyline fill="none" stroke="black" points="600.5,-182.5 731.5,-182.5 "/>
<text text-anchor="start" x="608.5" y="-167.3" font-family="Times,serif" font-size="14.00">id :bigint(20)</text>
<text text-anchor="start" x="608.5" y="-152.3" font-family="Times,serif" font-size="14.00">name :varchar(255)</text>
<text text-anchor="start" x="608.5" y="-137.3" font-family="Times,serif" font-size="14.00">created_at :datetime</text>
<text text-anchor="start" x="608.5" y="-122.3" font-family="Times,serif" font-size="14.00">updated_at :datetime</text>
</g>
<!-- Player&#45;&gt;Team -->
<g id="edge2" class="edge"><title>Player&#45;&gt;Team</title>
<path fill="none" stroke="#6912c7" d="M640.653,-233.266C642.728,-227.351 644.821,-221.382 646.869,-215.543"/>
<polygon fill="#6912c7" stroke="#6912c7" points="640.616,-233.372 633.06,-241.319 638.961,-238.09 637.306,-242.808 637.306,-242.808 637.306,-242.808 638.961,-238.09 641.552,-244.298 640.616,-233.372 640.616,-233.372"/>
<polygon fill="#6912c7" stroke="#6912c7" points="646.951,-215.31 654.507,-207.363 648.606,-210.592 650.261,-205.873 650.261,-205.873 650.261,-205.873 648.606,-210.592 646.014,-204.384 646.951,-215.31 646.951,-215.31"/>
</g>
<!-- Team&#45;&gt;PlayerTeam -->
<g id="edge3" class="edge"><title>Team&#45;&gt;PlayerTeam</title>
<path fill="none" stroke="#e91957" d="M645.376,-106.783C642.725,-100.07 640.024,-93.231 637.411,-86.6155"/>
<ellipse fill="none" stroke="#e91957" cx="646.896" cy="-110.63" rx="4.00001" ry="4.00001"/>
<polygon fill="#e91957" stroke="#e91957" points="637.336,-86.4243 637.848,-75.4703 635.499,-81.7738 633.662,-77.1234 633.662,-77.1234 633.662,-77.1234 635.499,-81.7738 629.477,-78.7765 637.336,-86.4243 637.336,-86.4243"/>
</g>
</g>
</svg>
