<?xml version="1.0" encoding="UTF-8" standalone="no"?>
<!DOCTYPE svg PUBLIC "-//W3C//DTD SVG 1.1//EN"
 "http://www.w3.org/Graphics/SVG/1.1/DTD/svg11.dtd">
<!-- Generated by graphviz version 2.36.0 (20140111.2315)
 -->
<!-- Title: models_diagram Pages: 1 -->
<svg width="608pt" height="230pt"
 viewBox="0.00 0.00 608.00 230.00" xmlns="http://www.w3.org/2000/svg" xmlns:xlink="http://www.w3.org/1999/xlink">
<g id="graph0" class="graph" transform="scale(1 1) rotate(0) translate(4 226)">
<title>models_diagram</title>
<polygon fill="none" stroke="none" points="-4,4 -4,-226 604,-226 604,4 -4,4"/>
<!-- _diagram_info -->
<g id="node1" class="node"><title>_diagram_info</title>
<text text-anchor="start" x="8" y="-207.6" font-family="Times,serif" font-size="13.00">Models diagram</text>
<text text-anchor="start" x="8" y="-193.6" font-family="Times,serif" font-size="13.00">Date: Jan 07 2018 &#45; 07:46</text>
<text text-anchor="start" x="8" y="-179.6" font-family="Times,serif" font-size="13.00">Migration version: 20171005004555</text>
<text text-anchor="start" x="8" y="-165.6" font-family="Times,serif" font-size="13.00">Generated by RailRoady 1.5.3</text>
<text text-anchor="start" x="8" y="-151.6" font-family="Times,serif" font-size="13.00">http://railroady.prestonlee.com</text>
</g>
<!-- ApplicationRecord -->
<g id="node2" class="node"><title>ApplicationRecord</title>
<ellipse fill="none" stroke="black" cx="309" cy="-183" rx="77.0154" ry="18"/>
<text text-anchor="middle" x="309" y="-179.3" font-family="Times,serif" font-size="14.00">ApplicationRecord</text>
</g>
<!-- Location -->
<g id="node3" class="node"><title>Location</title>
<ellipse fill="none" stroke="black" cx="447" cy="-183" rx="42.3701" ry="18"/>
<text text-anchor="middle" x="447" y="-179.3" font-family="Times,serif" font-size="14.00">Location</text>
</g>
<!-- Player -->
<g id="node4" class="node"><title>Player</title>
<ellipse fill="none" stroke="black" cx="540" cy="-183" rx="33.2209" ry="18"/>
<text text-anchor="middle" x="540" y="-179.3" font-family="Times,serif" font-size="14.00">Player</text>
</g>
<!-- PlayerTeam -->
<g id="node5" class="node"><title>PlayerTeam</title>
<ellipse fill="none" stroke="black" cx="539" cy="-18" rx="53.4184" ry="18"/>
<text text-anchor="middle" x="539" y="-14.3" font-family="Times,serif" font-size="14.00">PlayerTeam</text>
</g>
<!-- Player&#45;&gt;PlayerTeam -->
<g id="edge1" class="edge"><title>Player&#45;&gt;PlayerTeam</title>
<path fill="none" stroke="#0a2488" d="M534.725,-156.895C530.701,-134.605 526.275,-101.144 529,-72 529.797,-63.4781 531.3,-54.2849 532.903,-45.9862"/>
<ellipse fill="none" stroke="#0a2488" cx="535.488" cy="-160.928" rx="4.00001" ry="4.00001"/>
<polygon fill="#0a2488" stroke="#0a2488" points="532.927,-45.866 539.349,-36.977 533.934,-40.9684 534.941,-36.0708 534.941,-36.0708 534.941,-36.0708 533.934,-40.9684 530.533,-35.1647 532.927,-45.866 532.927,-45.866"/>
</g>
<!-- Team -->
<g id="node6" class="node"><title>Team</title>
<ellipse fill="none" stroke="black" cx="569" cy="-90" rx="31.2965" ry="18"/>
<text text-anchor="middle" x="569" y="-86.3" font-family="Times,serif" font-size="14.00">Team</text>
</g>
<!-- Player&#45;&gt;Team -->
<g id="edge2" class="edge"><title>Player&#45;&gt;Team</title>
<path fill="none" stroke="#b64993" d="M548.608,-154.988C552.358,-143.221 556.741,-129.467 560.481,-117.732"/>
<polygon fill="#b64993" stroke="#b64993" points="548.491,-155.356 541.167,-163.517 546.973,-160.12 545.455,-164.884 545.455,-164.884 545.455,-164.884 546.973,-160.12 549.742,-166.25 548.491,-155.356 548.491,-155.356"/>
<polygon fill="#b64993" stroke="#b64993" points="560.533,-117.568 567.857,-109.406 562.052,-112.804 563.57,-108.04 563.57,-108.04 563.57,-108.04 562.052,-112.804 559.282,-106.673 560.533,-117.568 560.533,-117.568"/>
</g>
<!-- Team&#45;&gt;PlayerTeam -->
<g id="edge3" class="edge"><title>Team&#45;&gt;PlayerTeam</title>
<path fill="none" stroke="#5eec36" d="M558.619,-64.7779C555.947,-58.544 553.059,-51.8046 550.341,-45.4634"/>
<ellipse fill="none" stroke="#5eec36" cx="560.315" cy="-68.7344" rx="4.00002" ry="4.00002"/>
<polygon fill="#5eec36" stroke="#5eec36" points="550.206,-45.1477 550.403,-34.1835 548.237,-40.5519 546.267,-35.9562 546.267,-35.9562 546.267,-35.9562 548.237,-40.5519 542.131,-37.7289 550.206,-45.1477 550.206,-45.1477"/>
</g>
</g>
</svg>
