<?xml version="1.0" encoding="UTF-8" standalone="no"?>
<!DOCTYPE svg PUBLIC "-//W3C//DTD SVG 1.1//EN"
 "http://www.w3.org/Graphics/SVG/1.1/DTD/svg11.dtd">
<!-- Generated by graphviz version 2.36.0 (20140111.2315)
 -->
<!-- Title: models_diagram Pages: 1 -->
<svg width="925pt" height="508pt"
 viewBox="0.00 0.00 925.00 508.00" xmlns="http://www.w3.org/2000/svg" xmlns:xlink="http://www.w3.org/1999/xlink">
<g id="graph0" class="graph" transform="scale(1 1) rotate(0) translate(4 504)">
<title>models_diagram</title>
<polygon fill="none" stroke="none" points="-4,4 -4,-504 921,-504 921,4 -4,4"/>
<!-- _diagram_info -->
<g id="node1" class="node"><title>_diagram_info</title>
<text text-anchor="start" x="8" y="-410.6" font-family="Times,serif" font-size="13.00">Models diagram</text>
<text text-anchor="start" x="8" y="-396.6" font-family="Times,serif" font-size="13.00">Date: Aug 03 2018 &#45; 20:18</text>
<text text-anchor="start" x="8" y="-382.6" font-family="Times,serif" font-size="13.00">Migration version: 20180720164119</text>
<text text-anchor="start" x="8" y="-368.6" font-family="Times,serif" font-size="13.00">Generated by RailRoady 1.5.3</text>
<text text-anchor="start" x="8" y="-354.6" font-family="Times,serif" font-size="13.00">http://railroady.prestonlee.com</text>
</g>
<!-- ApplicationRecord -->
<g id="node2" class="node"><title>ApplicationRecord</title>
<ellipse fill="none" stroke="black" cx="309" cy="-386" rx="77.0154" ry="18"/>
<text text-anchor="middle" x="309" y="-382.3" font-family="Times,serif" font-size="14.00">ApplicationRecord</text>
</g>
<!-- Location -->
<g id="node3" class="node"><title>Location</title>
<path fill="none" stroke="black" d="M416.5,-340.5C416.5,-340.5 523.5,-340.5 523.5,-340.5 529.5,-340.5 535.5,-346.5 535.5,-352.5 535.5,-352.5 535.5,-419.5 535.5,-419.5 535.5,-425.5 529.5,-431.5 523.5,-431.5 523.5,-431.5 416.5,-431.5 416.5,-431.5 410.5,-431.5 404.5,-425.5 404.5,-419.5 404.5,-419.5 404.5,-352.5 404.5,-352.5 404.5,-346.5 410.5,-340.5 416.5,-340.5"/>
<text text-anchor="middle" x="470" y="-416.3" font-family="Times,serif" font-size="14.00">Location</text>
<polyline fill="none" stroke="black" points="404.5,-408.5 535.5,-408.5 "/>
<text text-anchor="start" x="412.5" y="-393.3" font-family="Times,serif" font-size="14.00">id :bigint(20)</text>
<text text-anchor="start" x="412.5" y="-378.3" font-family="Times,serif" font-size="14.00">name :varchar(255)</text>
<text text-anchor="start" x="412.5" y="-363.3" font-family="Times,serif" font-size="14.00">created_at :datetime</text>
<text text-anchor="start" x="412.5" y="-348.3" font-family="Times,serif" font-size="14.00">updated_at :datetime</text>
</g>
<!-- Player -->
<g id="node4" class="node"><title>Player</title>
<path fill="none" stroke="black" d="M565.5,-333C565.5,-333 672.5,-333 672.5,-333 678.5,-333 684.5,-339 684.5,-345 684.5,-345 684.5,-427 684.5,-427 684.5,-433 678.5,-439 672.5,-439 672.5,-439 565.5,-439 565.5,-439 559.5,-439 553.5,-433 553.5,-427 553.5,-427 553.5,-345 553.5,-345 553.5,-339 559.5,-333 565.5,-333"/>
<text text-anchor="middle" x="619" y="-423.8" font-family="Times,serif" font-size="14.00">Player</text>
<polyline fill="none" stroke="black" points="553.5,-416 684.5,-416 "/>
<text text-anchor="start" x="561.5" y="-400.8" font-family="Times,serif" font-size="14.00">id :bigint(20)</text>
<text text-anchor="start" x="561.5" y="-385.8" font-family="Times,serif" font-size="14.00">name :varchar(255)</text>
<text text-anchor="start" x="561.5" y="-370.8" font-family="Times,serif" font-size="14.00">status :int(11)</text>
<text text-anchor="start" x="561.5" y="-355.8" font-family="Times,serif" font-size="14.00">created_at :datetime</text>
<text text-anchor="start" x="561.5" y="-340.8" font-family="Times,serif" font-size="14.00">updated_at :datetime</text>
</g>
<!-- PlayerTeam -->
<g id="node5" class="node"><title>PlayerTeam</title>
<path fill="none" stroke="black" d="M565.5,-1C565.5,-1 672.5,-1 672.5,-1 678.5,-1 684.5,-7 684.5,-13 684.5,-13 684.5,-95 684.5,-95 684.5,-101 678.5,-107 672.5,-107 672.5,-107 565.5,-107 565.5,-107 559.5,-107 553.5,-101 553.5,-95 553.5,-95 553.5,-13 553.5,-13 553.5,-7 559.5,-1 565.5,-1"/>
<text text-anchor="middle" x="619" y="-91.8" font-family="Times,serif" font-size="14.00">PlayerTeam</text>
<polyline fill="none" stroke="black" points="553.5,-84 684.5,-84 "/>
<text text-anchor="start" x="561.5" y="-68.8" font-family="Times,serif" font-size="14.00">id :bigint(20)</text>
<text text-anchor="start" x="561.5" y="-53.8" font-family="Times,serif" font-size="14.00">player_id :bigint(20)</text>
<text text-anchor="start" x="561.5" y="-38.8" font-family="Times,serif" font-size="14.00">team_id :bigint(20)</text>
<text text-anchor="start" x="561.5" y="-23.8" font-family="Times,serif" font-size="14.00">created_at :datetime</text>
<text text-anchor="start" x="561.5" y="-8.8" font-family="Times,serif" font-size="14.00">updated_at :datetime</text>
</g>
<!-- Player&#45;&gt;PlayerTeam -->
<g id="edge1" class="edge"><title>Player&#45;&gt;PlayerTeam</title>
<path fill="none" stroke="#e277ea" d="M603.608,-324.727C593.211,-275.884 582.9,-205.345 592,-144 593.322,-135.086 595.352,-125.828 597.716,-116.8"/>
<ellipse fill="none" stroke="#e277ea" cx="604.489" cy="-328.769" rx="4.00001" ry="4.00001"/>
<polygon fill="#e277ea" stroke="#e277ea" points="597.728,-116.759 604.734,-108.323 599.062,-111.94 600.397,-107.122 600.397,-107.122 600.397,-107.122 599.062,-111.94 596.06,-105.921 597.728,-116.759 597.728,-116.759"/>
</g>
<!-- Team -->
<g id="node6" class="node"><title>Team</title>
<path fill="none" stroke="black" d="M612.5,-144.5C612.5,-144.5 719.5,-144.5 719.5,-144.5 725.5,-144.5 731.5,-150.5 731.5,-156.5 731.5,-156.5 731.5,-223.5 731.5,-223.5 731.5,-229.5 725.5,-235.5 719.5,-235.5 719.5,-235.5 612.5,-235.5 612.5,-235.5 606.5,-235.5 600.5,-229.5 600.5,-223.5 600.5,-223.5 600.5,-156.5 600.5,-156.5 600.5,-150.5 606.5,-144.5 612.5,-144.5"/>
<text text-anchor="middle" x="666" y="-220.3" font-family="Times,serif" font-size="14.00">Team</text>
<polyline fill="none" stroke="black" points="600.5,-212.5 731.5,-212.5 "/>
<text text-anchor="start" x="608.5" y="-197.3" font-family="Times,serif" font-size="14.00">id :bigint(20)</text>
<text text-anchor="start" x="608.5" y="-182.3" font-family="Times,serif" font-size="14.00">name :varchar(255)</text>
<text text-anchor="start" x="608.5" y="-167.3" font-family="Times,serif" font-size="14.00">created_at :datetime</text>
<text text-anchor="start" x="608.5" y="-152.3" font-family="Times,serif" font-size="14.00">updated_at :datetime</text>
</g>
<!-- Player&#45;&gt;Team -->
<g id="edge2" class="edge"><title>Player&#45;&gt;Team</title>
<path fill="none" stroke="#6dddaf" d="M634.035,-322.939C640.045,-298.132 646.908,-269.805 652.73,-245.775"/>
<polygon fill="#6dddaf" stroke="#6dddaf" points="634.012,-323.038 627.283,-331.697 632.834,-327.897 631.657,-332.756 631.657,-332.756 631.657,-332.756 632.834,-327.897 636.03,-333.816 634.012,-323.038 634.012,-323.038"/>
<polygon fill="#6dddaf" stroke="#6dddaf" points="652.801,-245.48 659.529,-236.821 653.978,-240.621 655.156,-235.762 655.156,-235.762 655.156,-235.762 653.978,-240.621 650.782,-234.702 652.801,-245.48 652.801,-245.48"/>
</g>
<!-- Team&#45;&gt;PlayerTeam -->
<g id="edge3" class="edge"><title>Team&#45;&gt;PlayerTeam</title>
<path fill="none" stroke="#98211b" d="M647.67,-136.739C645.392,-130.247 643.047,-123.56 640.725,-116.939"/>
<ellipse fill="none" stroke="#98211b" cx="649.026" cy="-140.605" rx="4.00001" ry="4.00001"/>
<polygon fill="#98211b" stroke="#98211b" points="640.66,-116.754 641.597,-105.828 639.005,-112.036 637.35,-107.318 637.35,-107.318 637.35,-107.318 639.005,-112.036 633.104,-108.807 640.66,-116.754 640.66,-116.754"/>
</g>
<!-- User -->
<g id="node7" class="node"><title>User</title>
<path fill="none" stroke="black" d="M715,-273C715,-273 905,-273 905,-273 911,-273 917,-279 917,-285 917,-285 917,-487 917,-487 917,-493 911,-499 905,-499 905,-499 715,-499 715,-499 709,-499 703,-493 703,-487 703,-487 703,-285 703,-285 703,-279 709,-273 715,-273"/>
<text text-anchor="middle" x="810" y="-483.8" font-family="Times,serif" font-size="14.00">User</text>
<polyline fill="none" stroke="black" points="703,-476 917,-476 "/>
<text text-anchor="start" x="711" y="-460.8" font-family="Times,serif" font-size="14.00">id :bigint(20)</text>
<text text-anchor="start" x="711" y="-445.8" font-family="Times,serif" font-size="14.00">email :varchar(255)</text>
<text text-anchor="start" x="711" y="-430.8" font-family="Times,serif" font-size="14.00">encrypted_password :varchar(255)</text>
<text text-anchor="start" x="711" y="-415.8" font-family="Times,serif" font-size="14.00">reset_password_token :varchar(255)</text>
<text text-anchor="start" x="711" y="-400.8" font-family="Times,serif" font-size="14.00">reset_password_sent_at :datetime</text>
<text text-anchor="start" x="711" y="-385.8" font-family="Times,serif" font-size="14.00">remember_created_at :datetime</text>
<text text-anchor="start" x="711" y="-370.8" font-family="Times,serif" font-size="14.00">sign_in_count :int(11)</text>
<text text-anchor="start" x="711" y="-355.8" font-family="Times,serif" font-size="14.00">current_sign_in_at :datetime</text>
<text text-anchor="start" x="711" y="-340.8" font-family="Times,serif" font-size="14.00">last_sign_in_at :datetime</text>
<text text-anchor="start" x="711" y="-325.8" font-family="Times,serif" font-size="14.00">current_sign_in_ip :varchar(255)</text>
<text text-anchor="start" x="711" y="-310.8" font-family="Times,serif" font-size="14.00">last_sign_in_ip :varchar(255)</text>
<text text-anchor="start" x="711" y="-295.8" font-family="Times,serif" font-size="14.00">created_at :datetime</text>
<text text-anchor="start" x="711" y="-280.8" font-family="Times,serif" font-size="14.00">updated_at :datetime</text>
</g>
</g>
</svg>
